<svg width="124" height="32" viewBox="0 0 124 32" fill="none" xmlns="http://www.w3.org/2000/svg">
<rect x="0.5" y="0.5" width="123" height="31" rx="7.5" fill="white"/>
<g clip-path="url(#clip0_629_637)">
<path d="M24.9687 21.3438H19.0312C18.3969 21.3438 17.8005 21.0967 17.3519 20.6481C16.9033 20.1996 16.6562 19.6031 16.6562 18.9687V18.375C16.6562 18.047 16.9221 17.7812 17.25 17.7812C17.5779 17.7812 17.8438 18.047 17.8438 18.375V18.9687C17.8438 19.2859 17.9673 19.5841 18.1915 19.8084C18.4159 20.0327 18.7141 20.1562 19.0312 20.1562H24.9687C25.2859 20.1562 25.5841 20.0327 25.8084 19.8084C26.0327 19.5841 26.1562 19.2859 26.1562 18.9687V18.375C26.1562 18.047 26.4221 17.7812 26.75 17.7812C27.0779 17.7812 27.3438 18.047 27.3438 18.375V18.9687C27.3438 19.6031 27.0967 20.1995 26.6481 20.6481C26.1995 21.0967 25.6031 21.3438 24.9687 21.3438ZM22 18.9687C21.8449 18.9689 21.696 18.9083 21.5852 18.7998L21.5852 18.7998L21.584 18.7986L21.5837 18.7983C21.5833 18.798 21.583 18.7977 21.5827 18.7974L21.5821 18.7968C21.5819 18.7966 21.5817 18.7964 21.5815 18.7962L21.5802 18.7949L19.2052 16.4198C18.9733 16.188 18.9733 15.812 19.2052 15.5801C19.437 15.3483 19.813 15.3482 20.0449 15.5801L21.4063 16.9415V11.25C21.4062 10.9221 21.6721 10.6562 22 10.6562C22.3279 10.6562 22.5938 10.9221 22.5938 11.25V16.9415L23.9551 15.5801C24.187 15.3483 24.563 15.3483 24.7948 15.5801C25.0267 15.812 25.0267 16.188 24.7948 16.4198L22.4198 18.7948L22.4185 18.7961L22.4179 18.7968L22.4173 18.7974C22.417 18.7977 22.4167 18.798 22.4164 18.7983L22.416 18.7986C22.4156 18.799 22.4152 18.7994 22.4149 18.7998L22.4148 18.7998C22.4083 18.8062 22.4017 18.8123 22.3949 18.8184C22.3464 18.8617 22.2911 18.8967 22.2313 18.922L22.2307 18.9222C22.2304 18.9223 22.2303 18.9224 22.23 18.9225C22.1572 18.9531 22.079 18.9688 22 18.9687Z" fill="black"/>
</g>
<path d="M43.656 11.2V20.006H44.356V22.316H43.264V21H39.33V22.316H38.238V20.006H39.008C39.232 19.7353 39.358 19.2873 39.386 18.662L39.666 11.2H43.656ZM40.086 20.006H42.564V12.194H40.702L40.492 18.62C40.464 19.1987 40.3287 19.6607 40.086 20.006ZM47.1938 21.14C46.5218 21.14 46.0085 20.944 45.6538 20.552C45.2992 20.1507 45.1218 19.586 45.1218 18.858V16.086C45.1218 15.358 45.2992 14.798 45.6538 14.406C46.0085 14.014 46.5218 13.818 47.1938 13.818C47.8565 13.818 48.3652 14.014 48.7198 14.406C49.0838 14.798 49.2658 15.358 49.2658 16.086V18.858C49.2658 19.586 49.0838 20.1507 48.7198 20.552C48.3652 20.944 47.8565 21.14 47.1938 21.14ZM47.1938 20.202C47.8658 20.202 48.2018 19.7867 48.2018 18.956V15.988C48.2018 15.1667 47.8658 14.756 47.1938 14.756C46.5125 14.756 46.1718 15.1667 46.1718 15.988V18.956C46.1718 19.7867 46.5125 20.202 47.1938 20.202ZM52.8792 14.168C53.9805 14.168 54.5312 14.8447 54.5312 16.198V18.858C54.5312 19.586 54.3538 20.1507 53.9992 20.552C53.6445 20.944 53.1312 21.14 52.4592 21.14C51.7872 21.14 51.2738 20.944 50.9192 20.552C50.5645 20.1507 50.3872 19.586 50.3872 18.858V14.952C50.3872 14.2053 50.5318 13.5893 50.8212 13.104C50.9332 12.908 51.1058 12.7213 51.3392 12.544C51.5538 12.376 51.7498 12.2453 51.9272 12.152C52.0858 12.068 52.3238 11.956 52.6412 11.816C53.2385 11.564 53.7145 11.312 54.0692 11.06V12.138C53.8078 12.3247 53.4158 12.53 52.8932 12.754C52.4732 12.922 52.1325 13.118 51.8712 13.342C51.5818 13.594 51.4372 14.0233 51.4372 14.63V15.008C51.7545 14.448 52.2352 14.168 52.8792 14.168ZM53.4672 18.956V16.282C53.4672 15.498 53.1685 15.106 52.5712 15.106C52.2258 15.106 51.9505 15.246 51.7452 15.526C51.5398 15.7967 51.4372 16.1793 51.4372 16.674V18.956C51.4372 19.7867 51.7778 20.202 52.4592 20.202C53.1312 20.202 53.4672 19.7867 53.4672 18.956ZM59.7105 21H58.7445C58.6978 20.8227 58.6605 20.5053 58.6325 20.048C58.3432 20.776 57.7972 21.14 56.9945 21.14C56.5092 21.14 56.1265 20.986 55.8465 20.678C55.5665 20.3607 55.4265 19.936 55.4265 19.404C55.4265 18.8627 55.5572 18.4193 55.8185 18.074C56.0892 17.7193 56.5418 17.3927 57.1765 17.094C57.7552 16.8327 58.1238 16.6367 58.2825 16.506C58.4318 16.3847 58.5065 16.198 58.5065 15.946V15.778C58.5065 15.078 58.2032 14.728 57.5965 14.728C57.2885 14.728 57.0458 14.8213 56.8685 15.008C56.7005 15.1947 56.6165 15.4607 56.6165 15.806V16.016H55.6225V15.862C55.6225 15.2087 55.7952 14.7047 56.1405 14.35C56.4858 13.9953 56.9758 13.818 57.6105 13.818C58.9078 13.818 59.5565 14.5273 59.5565 15.946V19.082C59.5565 19.9033 59.6078 20.5427 59.7105 21ZM57.3585 20.216C57.7132 20.216 57.9932 20.076 58.1985 19.796C58.4038 19.516 58.5065 19.124 58.5065 18.62V17.206C58.4038 17.346 58.0632 17.5653 57.4845 17.864C56.8218 18.2 56.4905 18.662 56.4905 19.25C56.4905 19.894 56.7798 20.216 57.3585 20.216ZM63.0731 21H60.8751V13.958H62.9611C63.6611 13.958 64.1838 14.098 64.5291 14.378C64.8838 14.6487 65.0611 15.092 65.0611 15.708V15.82C65.0611 16.66 64.7205 17.1687 64.0391 17.346V17.374C64.8231 17.5513 65.2151 18.0833 65.2151 18.97V19.082C65.2151 20.3607 64.5011 21 63.0731 21ZM61.9251 14.854V16.982H62.8071C63.2178 16.982 63.5165 16.9027 63.7031 16.744C63.8991 16.5853 63.9971 16.3147 63.9971 15.932V15.82C63.9971 15.4747 63.9085 15.2273 63.7311 15.078C63.5631 14.9287 63.2971 14.854 62.9331 14.854H61.9251ZM61.9251 17.878V20.09H63.0731C63.4465 20.09 63.7171 20.0107 63.8851 19.852C64.0625 19.684 64.1511 19.4087 64.1511 19.026V18.9C64.1511 18.5547 64.0485 18.298 63.8431 18.13C63.6471 17.962 63.3158 17.878 62.8491 17.878H61.9251ZM67.2415 19.082L69.3695 13.958H70.4615V21H69.4955V15.876L67.3675 21H66.2755V13.958H67.2415V19.082ZM74.109 21H73.045V14.854H71.379V13.958H75.789V14.854H74.109V21ZM76.6935 21V13.958H77.7435V16.59H78.7935C80.2682 16.59 81.0055 17.3227 81.0055 18.788C81.0055 20.2627 80.2682 21 78.7935 21H76.6935ZM78.7935 17.556H77.7435V20.034H78.7935C79.1948 20.034 79.4888 19.9407 79.6755 19.754C79.8622 19.5673 79.9555 19.2453 79.9555 18.788C79.9555 18.368 79.8622 18.06 79.6755 17.864C79.4982 17.6587 79.2042 17.556 78.7935 17.556ZM87.6414 23.17H86.5914V21H86.3534C84.8694 21 84.1274 20.244 84.1274 18.732V16.226C84.1274 14.714 84.8694 13.958 86.3534 13.958H86.5914V11.2H87.6414V13.958H87.8654C89.3587 13.958 90.1054 14.714 90.1054 16.226V18.732C90.1054 20.244 89.3587 21 87.8654 21H87.6414V23.17ZM86.3534 20.09H86.5914V14.854H86.3534C85.5694 14.854 85.1774 15.2693 85.1774 16.1V18.858C85.1774 19.2687 85.266 19.5767 85.4434 19.782C85.6207 19.9873 85.924 20.09 86.3534 20.09ZM87.6414 14.854V20.09H87.8654C88.248 20.09 88.542 20.0013 88.7474 19.824C88.9527 19.6467 89.0554 19.3247 89.0554 18.858V16.1C89.0554 15.2693 88.6587 14.854 87.8654 14.854H87.6414ZM95.271 21H94.305C94.2584 20.8227 94.221 20.5053 94.193 20.048C93.9037 20.776 93.3577 21.14 92.555 21.14C92.0697 21.14 91.687 20.986 91.407 20.678C91.127 20.3607 90.987 19.936 90.987 19.404C90.987 18.8627 91.1177 18.4193 91.379 18.074C91.6497 17.7193 92.1024 17.3927 92.737 17.094C93.3157 16.8327 93.6844 16.6367 93.843 16.506C93.9924 16.3847 94.067 16.198 94.067 15.946V15.778C94.067 15.078 93.7637 14.728 93.157 14.728C92.849 14.728 92.6064 14.8213 92.429 15.008C92.261 15.1947 92.177 15.4607 92.177 15.806V16.016H91.183V15.862C91.183 15.2087 91.3557 14.7047 91.701 14.35C92.0464 13.9953 92.5364 13.818 93.171 13.818C94.4684 13.818 95.117 14.5273 95.117 15.946V19.082C95.117 19.9033 95.1684 20.5427 95.271 21ZM92.919 20.216C93.2737 20.216 93.5537 20.076 93.759 19.796C93.9644 19.516 94.067 19.124 94.067 18.62V17.206C93.9644 17.346 93.6237 17.5653 93.045 17.864C92.3824 18.2 92.051 18.662 92.051 19.25C92.051 19.894 92.3404 20.216 92.919 20.216ZM97.0657 11.452H97.7517C97.8077 11.9467 98.069 12.194 98.5357 12.194C99.021 12.194 99.2917 11.9467 99.3477 11.452H100.02C100.001 11.9187 99.861 12.2827 99.5997 12.544C99.3477 12.8053 98.993 12.936 98.5357 12.936C98.0783 12.936 97.7237 12.81 97.4717 12.558C97.2197 12.2967 97.0843 11.928 97.0657 11.452ZM97.4017 19.082L99.5297 13.958H100.622V21H99.6557V15.876L97.5277 21H96.4357V13.958H97.4017V19.082ZM102.057 21.042C101.833 21.042 101.66 21.0187 101.539 20.972V20.048C101.651 20.076 101.782 20.09 101.931 20.09C102.183 20.09 102.365 20.02 102.477 19.88C102.598 19.7307 102.668 19.474 102.687 19.11L102.925 13.958H106.565V21H105.501V14.91H103.933L103.723 19.236C103.695 19.852 103.546 20.3093 103.275 20.608C103.014 20.8973 102.608 21.042 102.057 21.042Z" fill="#010101"/>
<rect x="0.5" y="0.5" width="123" height="31" rx="7.5" stroke="#B7B7B7"/>
<defs>
<clipPath id="clip0_629_637">
<rect width="12" height="12" fill="white" transform="translate(16 10)"/>
</clipPath>
</defs>
</svg>
