<svg width="48" height="48" viewBox="0 0 92 92" fill="none" xmlns="http://www.w3.org/2000/svg">
<path d="M36.0024 45.9832C36.0024 40.4637 40.4783 35.988 46.0012 35.988C51.5241 35.988 56.0024 40.4637 56.0024 45.9832C56.0024 51.5028 51.5241 55.9784 46.0012 55.9784C40.4783 55.9784 36.0024 51.5028 36.0024 45.9832ZM30.5959 45.9832C30.5959 54.4865 37.4929 61.3792 46.0012 61.3792C54.5095 61.3792 61.4065 54.4865 61.4065 45.9832C61.4065 37.48 54.5095 30.5872 46.0012 30.5872C37.4929 30.5872 30.5959 37.48 30.5959 45.9832ZM58.4162 29.9767C58.4159 30.6883 58.6268 31.3841 59.0221 31.9759C59.4175 32.5678 59.9795 33.0291 60.6373 33.3017C61.295 33.5743 62.0188 33.6459 62.7173 33.5073C63.4157 33.3688 64.0573 33.0263 64.561 32.5233C65.0647 32.0204 65.4078 31.3794 65.547 30.6815C65.6862 29.9836 65.6152 29.2602 65.343 28.6026C65.0707 27.9451 64.6095 27.3829 64.0177 26.9874C63.4258 26.5918 62.7298 26.3805 62.0178 26.3802H62.0163C61.0619 26.3806 60.1467 26.7597 59.4716 27.434C58.7966 28.1083 58.417 29.0229 58.4162 29.9767ZM33.8807 70.3888C30.9557 70.2557 29.3659 69.7688 28.3094 69.3574C26.9087 68.8124 25.9093 68.1633 24.8585 67.1147C23.8078 66.066 23.1573 65.0681 22.6144 63.6683C22.2026 62.6129 21.7153 61.0235 21.5824 58.1003C21.4369 54.9398 21.4079 53.9904 21.4079 45.9835C21.4079 37.9765 21.4393 37.0297 21.5824 33.8666C21.7156 30.9434 22.2064 29.3572 22.6144 28.2986C23.1597 26.8988 23.8092 25.9 24.8585 24.8498C25.9078 23.7997 26.9063 23.1497 28.3094 22.6071C29.3654 22.1955 30.9557 21.7086 33.8807 21.5757C37.0431 21.4303 37.993 21.4013 46.0012 21.4013C54.0094 21.4013 54.9603 21.4327 58.1253 21.5757C61.0503 21.7088 62.6375 22.1993 63.6966 22.6071C65.0973 23.1497 66.0967 23.8012 67.1475 24.8498C68.1983 25.8985 68.8463 26.8988 69.3916 28.2986C69.8034 29.354 70.2907 30.9434 70.4236 33.8666C70.5691 37.0297 70.5981 37.9765 70.5981 45.9835C70.5981 53.9904 70.5691 54.9372 70.4236 58.1003C70.2904 61.0235 69.8008 62.6124 69.3916 63.6683C68.8463 65.0681 68.1968 66.0669 67.1475 67.1147C66.0982 68.1624 65.0973 68.8124 63.6966 69.3574C62.6406 69.769 61.0503 70.2559 58.1253 70.3888C54.9629 70.5342 54.013 70.5632 46.0012 70.5632C37.9894 70.5632 37.0421 70.5342 33.8807 70.3888ZM33.6323 16.1816C30.4385 16.3269 28.2561 16.8331 26.3502 17.5742C24.3763 18.3396 22.7054 19.3665 21.0356 21.0326C19.3659 22.6987 18.3411 24.3713 17.5752 26.344C16.8336 28.2499 16.3271 30.4298 16.1817 33.6217C16.0338 36.8187 16 37.8407 16 45.9832C16 54.1257 16.0338 55.1478 16.1817 58.3447C16.3271 61.5368 16.8336 63.7165 17.5752 65.6225C18.3411 67.5939 19.3661 69.2684 21.0356 70.9338C22.7051 72.5992 24.3763 73.6246 26.3502 74.3922C28.2597 75.1334 30.4385 75.6395 33.6323 75.7848C36.8328 75.9302 37.8538 75.9664 46.0012 75.9664C54.1486 75.9664 55.1712 75.9326 58.3701 75.7848C61.5641 75.6395 63.7451 75.1334 65.6522 74.3922C67.6249 73.6246 69.297 72.5999 70.9668 70.9338C72.6365 69.2677 73.6592 67.5939 74.4272 65.6225C75.1689 63.7165 75.6777 61.5366 75.8207 58.3447C75.9662 55.1454 76 54.1257 76 45.9832C76 37.8407 75.9662 36.8187 75.8207 33.6217C75.6753 30.4296 75.1689 28.2487 74.4272 26.344C73.6592 24.3725 72.6339 22.7014 70.9668 21.0326C69.2997 19.3639 67.6249 18.3396 65.6546 17.5742C63.7451 16.8331 61.5639 16.3245 58.3725 16.1816C55.1736 16.0362 54.151 16 46.0036 16C37.8562 16 36.8328 16.0338 33.6323 16.1816Z" fill="url(#paint0_radial_99_1926)"/>
<path d="M36.0024 45.9832C36.0024 40.4637 40.4783 35.988 46.0012 35.988C51.5241 35.988 56.0024 40.4637 56.0024 45.9832C56.0024 51.5028 51.5241 55.9784 46.0012 55.9784C40.4783 55.9784 36.0024 51.5028 36.0024 45.9832ZM30.5959 45.9832C30.5959 54.4865 37.4929 61.3792 46.0012 61.3792C54.5095 61.3792 61.4065 54.4865 61.4065 45.9832C61.4065 37.48 54.5095 30.5872 46.0012 30.5872C37.4929 30.5872 30.5959 37.48 30.5959 45.9832ZM58.4162 29.9767C58.4159 30.6883 58.6268 31.3841 59.0221 31.9759C59.4175 32.5678 59.9795 33.0291 60.6373 33.3017C61.295 33.5743 62.0188 33.6459 62.7173 33.5073C63.4157 33.3688 64.0573 33.0263 64.561 32.5233C65.0647 32.0204 65.4078 31.3794 65.547 30.6815C65.6862 29.9836 65.6152 29.2602 65.343 28.6026C65.0707 27.9451 64.6095 27.3829 64.0177 26.9874C63.4258 26.5918 62.7298 26.3805 62.0178 26.3802H62.0163C61.0619 26.3806 60.1467 26.7597 59.4716 27.434C58.7966 28.1083 58.417 29.0229 58.4162 29.9767ZM33.8807 70.3888C30.9557 70.2557 29.3659 69.7688 28.3094 69.3574C26.9087 68.8124 25.9093 68.1633 24.8585 67.1147C23.8078 66.066 23.1573 65.0681 22.6144 63.6683C22.2026 62.6129 21.7153 61.0235 21.5824 58.1003C21.4369 54.9398 21.4079 53.9904 21.4079 45.9835C21.4079 37.9765 21.4393 37.0297 21.5824 33.8666C21.7156 30.9434 22.2064 29.3572 22.6144 28.2986C23.1597 26.8988 23.8092 25.9 24.8585 24.8498C25.9078 23.7997 26.9063 23.1497 28.3094 22.6071C29.3654 22.1955 30.9557 21.7086 33.8807 21.5757C37.0431 21.4303 37.993 21.4013 46.0012 21.4013C54.0094 21.4013 54.9603 21.4327 58.1253 21.5757C61.0503 21.7088 62.6375 22.1993 63.6966 22.6071C65.0973 23.1497 66.0967 23.8012 67.1475 24.8498C68.1983 25.8985 68.8463 26.8988 69.3916 28.2986C69.8034 29.354 70.2907 30.9434 70.4236 33.8666C70.5691 37.0297 70.5981 37.9765 70.5981 45.9835C70.5981 53.9904 70.5691 54.9372 70.4236 58.1003C70.2904 61.0235 69.8008 62.6124 69.3916 63.6683C68.8463 65.0681 68.1968 66.0669 67.1475 67.1147C66.0982 68.1624 65.0973 68.8124 63.6966 69.3574C62.6406 69.769 61.0503 70.2559 58.1253 70.3888C54.9629 70.5342 54.013 70.5632 46.0012 70.5632C37.9894 70.5632 37.0421 70.5342 33.8807 70.3888ZM33.6323 16.1816C30.4385 16.3269 28.2561 16.8331 26.3502 17.5742C24.3763 18.3396 22.7054 19.3665 21.0356 21.0326C19.3659 22.6987 18.3411 24.3713 17.5752 26.344C16.8336 28.2499 16.3271 30.4298 16.1817 33.6217C16.0338 36.8187 16 37.8407 16 45.9832C16 54.1257 16.0338 55.1478 16.1817 58.3447C16.3271 61.5368 16.8336 63.7165 17.5752 65.6225C18.3411 67.5939 19.3661 69.2684 21.0356 70.9338C22.7051 72.5992 24.3763 73.6246 26.3502 74.3922C28.2597 75.1334 30.4385 75.6395 33.6323 75.7848C36.8328 75.9302 37.8538 75.9664 46.0012 75.9664C54.1486 75.9664 55.1712 75.9326 58.3701 75.7848C61.5641 75.6395 63.7451 75.1334 65.6522 74.3922C67.6249 73.6246 69.297 72.5999 70.9668 70.9338C72.6365 69.2677 73.6592 67.5939 74.4272 65.6225C75.1689 63.7165 75.6777 61.5366 75.8207 58.3447C75.9662 55.1454 76 54.1257 76 45.9832C76 37.8407 75.9662 36.8187 75.8207 33.6217C75.6753 30.4296 75.1689 28.2487 74.4272 26.344C73.6592 24.3725 72.6339 22.7014 70.9668 21.0326C69.2997 19.3639 67.6249 18.3396 65.6546 17.5742C63.7451 16.8331 61.5639 16.3245 58.3725 16.1816C55.1736 16.0362 54.151 16 46.0036 16C37.8562 16 36.8328 16.0338 33.6323 16.1816Z" fill="url(#paint1_radial_99_1926)"/>
<defs>
<radialGradient id="paint0_radial_99_1926" cx="0" cy="0" r="1" gradientUnits="userSpaceOnUse" gradientTransform="translate(23.9717 76.2497) scale(78.3281 78.2811)">
<stop offset="0.09" stop-color="#FA8F21"/>
<stop offset="0.78" stop-color="#D82D7E"/>
</radialGradient>
<radialGradient id="paint1_radial_99_1926" cx="0" cy="0" r="1" gradientUnits="userSpaceOnUse" gradientTransform="translate(52.3888 78.9362) scale(61.7334 61.6963)">
<stop offset="0.64" stop-color="#8C3AAA" stop-opacity="0"/>
<stop offset="1" stop-color="#8C3AAA"/>
</radialGradient>
</defs>
</svg>
