<svg width="48" height="48" viewBox="0 0 48 48" fill="none" xmlns="http://www.w3.org/2000/svg">
<path d="M18.8737 24.1202C18.8737 21.2241 21.2201 18.8757 24.1154 18.8757C27.0107 18.8757 29.3584 21.2241 29.3584 24.1202C29.3584 27.0163 27.0107 29.3647 24.1154 29.3647C21.2201 29.3647 18.8737 27.0163 18.8737 24.1202ZM16.0394 24.1202C16.0394 28.5819 19.655 32.1985 24.1154 32.1985C28.5758 32.1985 32.1914 28.5819 32.1914 24.1202C32.1914 19.6585 28.5758 16.0419 24.1154 16.0419C19.655 16.0419 16.0394 19.6585 16.0394 24.1202ZM30.6238 15.7216C30.6236 16.0949 30.7342 16.46 30.9414 16.7705C31.1487 17.0811 31.4434 17.3232 31.7882 17.4662C32.133 17.6092 32.5124 17.6468 32.8786 17.5741C33.2447 17.5014 33.5811 17.3217 33.8451 17.0578C34.1092 16.7939 34.2891 16.4575 34.362 16.0914C34.435 15.7252 34.3978 15.3456 34.2551 15.0006C34.1124 14.6555 33.8706 14.3606 33.5603 14.153C33.25 13.9455 32.8851 13.8346 32.5119 13.8344H32.5111C32.0108 13.8347 31.531 14.0336 31.1771 14.3874C30.8232 14.7412 30.6242 15.2211 30.6238 15.7216ZM17.7614 36.9259C16.228 36.856 15.3946 36.6005 14.8407 36.3847C14.1064 36.0987 13.5825 35.7582 13.0316 35.2079C12.4808 34.6577 12.1398 34.1341 11.8552 33.3996C11.6393 32.8458 11.3839 32.0119 11.3142 30.478C11.2379 28.8197 11.2227 28.3216 11.2227 24.1203C11.2227 19.9191 11.2392 19.4223 11.3142 17.7626C11.384 16.2288 11.6413 15.3965 11.8552 14.8411C12.1411 14.1066 12.4816 13.5825 13.0316 13.0315C13.5817 12.4805 14.1052 12.1394 14.8407 11.8547C15.3943 11.6387 16.228 11.3832 17.7614 11.3135C19.4192 11.2372 19.9172 11.222 24.1154 11.222C28.3136 11.222 28.8121 11.2385 30.4713 11.3135C32.0047 11.3834 32.8367 11.6407 33.392 11.8547C34.1263 12.1394 34.6502 12.4812 35.2011 13.0315C35.7519 13.5817 36.0916 14.1066 36.3775 14.8411C36.5934 15.3948 36.8488 16.2288 36.9185 17.7626C36.9948 19.4223 37.01 19.9191 37.01 24.1203C37.01 28.3216 36.9948 28.8183 36.9185 30.478C36.8487 32.0119 36.592 32.8456 36.3775 33.3996C36.0916 34.1341 35.7511 34.6582 35.2011 35.2079C34.651 35.7577 34.1263 36.0987 33.392 36.3847C32.8384 36.6007 32.0047 36.8561 30.4713 36.9259C28.8135 37.0021 28.3155 37.0174 24.1154 37.0174C19.9154 37.0174 19.4187 37.0021 17.7614 36.9259ZM17.6312 8.48321C15.9569 8.55948 14.8128 8.82504 13.8136 9.21395C12.7789 9.61556 11.9029 10.1544 11.0276 11.0286C10.1522 11.9028 9.61496 12.7804 9.21346 13.8154C8.82467 14.8155 8.55919 15.9593 8.48294 17.6341C8.40544 19.3115 8.3877 19.8478 8.3877 24.1202C8.3877 28.3926 8.40544 28.9288 8.48294 30.6063C8.55919 32.2812 8.82467 33.4249 9.21346 34.4249C9.61496 35.4594 10.1523 36.338 11.0276 37.2118C11.9028 38.0856 12.7789 38.6237 13.8136 39.0264C14.8147 39.4153 15.9569 39.6809 17.6312 39.7572C19.309 39.8334 19.8443 39.8524 24.1154 39.8524C28.3866 39.8524 28.9227 39.8347 30.5996 39.7572C32.2741 39.6809 33.4174 39.4153 34.4172 39.0264C35.4513 38.6237 36.3279 38.086 37.2033 37.2118C38.0786 36.3376 38.6147 35.4594 39.0174 34.4249C39.4061 33.4249 39.6729 32.2811 39.7479 30.6063C39.8241 28.9276 39.8419 28.3926 39.8419 24.1202C39.8419 19.8478 39.8241 19.3115 39.7479 17.6341C39.6716 15.9592 39.4061 14.8149 39.0174 13.8154C38.6147 12.781 38.0772 11.9042 37.2033 11.0286C36.3293 10.153 35.4513 9.61556 34.4184 9.21395C33.4174 8.82504 32.2739 8.55823 30.6009 8.48321C28.9239 8.40694 28.3878 8.38794 24.1167 8.38794C19.8455 8.38794 19.309 8.40569 17.6312 8.48321Z" fill="#010101"/>
<path d="M18.8737 24.1202C18.8737 21.2241 21.2201 18.8757 24.1154 18.8757C27.0107 18.8757 29.3584 21.2241 29.3584 24.1202C29.3584 27.0163 27.0107 29.3647 24.1154 29.3647C21.2201 29.3647 18.8737 27.0163 18.8737 24.1202ZM16.0394 24.1202C16.0394 28.5819 19.655 32.1985 24.1154 32.1985C28.5758 32.1985 32.1914 28.5819 32.1914 24.1202C32.1914 19.6585 28.5758 16.0419 24.1154 16.0419C19.655 16.0419 16.0394 19.6585 16.0394 24.1202ZM30.6238 15.7216C30.6236 16.0949 30.7342 16.46 30.9414 16.7705C31.1487 17.0811 31.4434 17.3232 31.7882 17.4662C32.133 17.6092 32.5124 17.6468 32.8786 17.5741C33.2447 17.5014 33.5811 17.3217 33.8451 17.0578C34.1092 16.7939 34.2891 16.4575 34.362 16.0914C34.435 15.7252 34.3978 15.3456 34.2551 15.0006C34.1124 14.6555 33.8706 14.3606 33.5603 14.153C33.25 13.9455 32.8851 13.8346 32.5119 13.8344H32.5111C32.0108 13.8347 31.531 14.0336 31.1771 14.3874C30.8232 14.7412 30.6242 15.2211 30.6238 15.7216ZM17.7614 36.9259C16.228 36.856 15.3946 36.6005 14.8407 36.3847C14.1064 36.0987 13.5825 35.7582 13.0316 35.2079C12.4808 34.6577 12.1398 34.1341 11.8552 33.3996C11.6393 32.8458 11.3839 32.0119 11.3142 30.478C11.2379 28.8197 11.2227 28.3216 11.2227 24.1203C11.2227 19.9191 11.2392 19.4223 11.3142 17.7626C11.384 16.2288 11.6413 15.3965 11.8552 14.8411C12.1411 14.1066 12.4816 13.5825 13.0316 13.0315C13.5817 12.4805 14.1052 12.1394 14.8407 11.8547C15.3943 11.6387 16.228 11.3832 17.7614 11.3135C19.4192 11.2372 19.9172 11.222 24.1154 11.222C28.3136 11.222 28.8121 11.2385 30.4713 11.3135C32.0047 11.3834 32.8367 11.6407 33.392 11.8547C34.1263 12.1394 34.6502 12.4812 35.2011 13.0315C35.7519 13.5817 36.0916 14.1066 36.3775 14.8411C36.5934 15.3948 36.8488 16.2288 36.9185 17.7626C36.9948 19.4223 37.01 19.9191 37.01 24.1203C37.01 28.3216 36.9948 28.8183 36.9185 30.478C36.8487 32.0119 36.592 32.8456 36.3775 33.3996C36.0916 34.1341 35.7511 34.6582 35.2011 35.2079C34.651 35.7577 34.1263 36.0987 33.392 36.3847C32.8384 36.6007 32.0047 36.8561 30.4713 36.9259C28.8135 37.0021 28.3155 37.0174 24.1154 37.0174C19.9154 37.0174 19.4187 37.0021 17.7614 36.9259ZM17.6312 8.48321C15.9569 8.55948 14.8128 8.82504 13.8136 9.21395C12.7789 9.61556 11.9029 10.1544 11.0276 11.0286C10.1522 11.9028 9.61496 12.7804 9.21346 13.8154C8.82467 14.8155 8.55919 15.9593 8.48294 17.6341C8.40544 19.3115 8.3877 19.8478 8.3877 24.1202C8.3877 28.3926 8.40544 28.9288 8.48294 30.6063C8.55919 32.2812 8.82467 33.4249 9.21346 34.4249C9.61496 35.4594 10.1523 36.338 11.0276 37.2118C11.9028 38.0856 12.7789 38.6237 13.8136 39.0264C14.8147 39.4153 15.9569 39.6809 17.6312 39.7572C19.309 39.8334 19.8443 39.8524 24.1154 39.8524C28.3866 39.8524 28.9227 39.8347 30.5996 39.7572C32.2741 39.6809 33.4174 39.4153 34.4172 39.0264C35.4513 38.6237 36.3279 38.086 37.2033 37.2118C38.0786 36.3376 38.6147 35.4594 39.0174 34.4249C39.4061 33.4249 39.6729 32.2811 39.7479 30.6063C39.8241 28.9276 39.8419 28.3926 39.8419 24.1202C39.8419 19.8478 39.8241 19.3115 39.7479 17.6341C39.6716 15.9592 39.4061 14.8149 39.0174 13.8154C38.6147 12.781 38.0772 11.9042 37.2033 11.0286C36.3293 10.153 35.4513 9.61556 34.4184 9.21395C33.4174 8.82504 32.2739 8.55823 30.6009 8.48321C28.9239 8.40694 28.3878 8.38794 24.1167 8.38794C19.8455 8.38794 19.309 8.40569 17.6312 8.48321Z" fill="#010101"/>
</svg>
