<svg width="56" height="56" viewBox="0 0 56 56" fill="none" xmlns="http://www.w3.org/2000/svg">
<g clip-path="url(#clip0_38_605)">
<path d="M10.1901 33.4526C15.3019 33.4526 20.6592 30.3519 20.6592 25.4029C20.6592 16.3212 8.80257 18.876 8.80257 15.7226C8.80257 13.6563 20.196 8.43432 20.196 6.58587C20.196 5.9873 19.6524 5.9873 18.891 5.9873H1.92479V10.1199C4.66994 8.37928 9.26583 6.39323 14.0245 6.39323C15.0864 6.39323 15.6024 6.96427 15.6024 7.75319C15.6024 11.5602 6.95413 13.3834 6.95413 17.7889C6.95413 22.6829 20.196 21.7862 20.196 26.1367C20.196 28.8039 14.3754 29.5905 12.0385 29.5905C8.39435 29.5905 5.53912 28.5287 3.03707 26.9509L1.40649 30.3772C2.71141 31.7646 6.00238 33.4503 10.1901 33.4503V33.4526Z" fill="white"/>
<path d="M21.0697 22.7494C21.0697 29.1938 24.1978 35.2322 31.4586 35.2322C36.4352 35.2322 40.46 31.1523 40.46 26.1757C40.46 20.846 37.114 16.3602 30.9954 16.3602C28.5208 16.3602 26.9705 17.3394 26.0463 18.126L25.7757 18.2613C27.326 13.5577 30.9151 10.0488 32.6282 7.76465H27.7869C24.8239 10.5648 21.0697 16.1675 21.0697 22.7494ZM29.4726 17.2844C33.4699 17.2844 37.3594 23.7562 37.3594 28.9759C37.3594 31.4229 36.8686 34.1979 33.4447 34.1979C28.5231 34.1979 25.0143 27.8338 25.0143 22.8022C25.0143 21.7151 25.1496 20.6808 25.3675 19.6741C26.1013 18.3416 27.6792 17.2821 29.4749 17.2821L29.4726 17.2844Z" fill="white"/>
<path d="M35.6119 19.6162C35.6119 24.946 38.9557 29.4341 45.0743 29.4341C47.5213 29.4341 49.0717 28.4823 49.9959 27.6934C47.8493 32.5874 43.008 36.5045 40.9944 38.0273H46.7599C49.5877 35.5252 55 29.6244 55 23.0448C55 16.4651 51.8718 10.562 44.6111 10.562C39.6345 10.562 35.6119 14.6419 35.6119 19.6162ZM42.6273 11.594C47.5489 11.594 51.0577 17.9558 51.0577 22.9874C51.0577 24.1846 50.8398 25.3542 50.4591 26.4963C49.6702 27.6384 48.23 28.5098 46.5971 28.5098C42.5998 28.5098 38.7103 22.038 38.7103 16.816C38.7103 14.369 39.201 11.594 42.625 11.594H42.6273Z" fill="white"/>
<path d="M12.9076 44.6831V44.6396C11.0087 43.947 11.3183 40.4083 11.5316 38.8763C11.7013 37.654 11.7013 37.6632 11.8733 36.4752C12.1806 36.7229 12.2334 37.1426 12.3251 37.826C12.4191 38.6654 12.4879 39.202 12.6255 40.1606C12.7884 41.1192 12.942 44.5639 14.8295 44.5639C15.7101 44.5639 15.8041 43.9217 15.8041 43.5387C15.8041 42.298 14.9923 39.3924 14.9923 38.0851C14.9923 37.4705 15.0955 36.599 15.7285 36.599C16.3179 36.599 16.311 37.5393 16.4119 38.2915C16.7467 40.7271 16.9508 42.188 17.2925 44.6854H18.5745C18.2328 42.188 18.0539 40.7363 17.6939 38.2824C17.5402 37.2228 17.4966 36.0532 16.3591 36.0532C15.3753 36.0532 14.7882 36.8054 14.8386 38.0966C14.8891 39.319 15.256 40.8509 15.3867 41.6536C15.5817 42.9104 15.8569 43.9699 15.1735 43.9699C14.6506 43.9699 14.2928 42.7384 14.1552 41.8577C13.8823 40.0712 13.7447 38.9589 13.4626 36.9752C13.3869 36.4385 13.1049 36.1381 12.7012 36.1381H10.8551V36.1817C11.0271 36.1977 11.1716 36.216 11.3 36.2413C11.8986 36.4546 11.6577 37.0623 11.5729 37.5737L10.2382 44.6877H12.9053L12.9076 44.6831Z" fill="white"/>
<path d="M20.056 44.6736C20.056 45.7171 20.7739 46.6413 22.1338 46.6413C24.8514 46.6413 26.0921 43.4513 26.0921 41.3918V38.0068H24.8514L24.8606 44.6667C24.8606 45.5313 23.691 45.5313 22.5535 45.5313C21.0055 45.5313 20.212 45.2493 20.212 44.215C20.212 43.1806 20.8197 40.0525 21.8357 38.0091H20.056V44.6759V44.6736Z" fill="white"/>
<path d="M30.8096 48.2491C32.5273 48.2491 34.1166 47.224 34.1166 45.5567C34.1166 43.8895 32.791 43.1464 30.8692 43.0088C29.8945 42.94 28.3304 43.034 28.3304 42.0525C28.3304 41.0709 29.656 40.7521 30.9036 40.7521C31.9975 40.7521 33.135 41.0434 33.6304 41.4012L33.9813 40.1008C33.4515 39.6743 32.3048 39.5298 31.4242 39.5298C28.9634 39.5298 28.1837 40.8966 28.1837 41.9493C28.1837 43.3505 28.8923 44.1532 31.0572 44.5224C32.298 44.7357 33.956 44.7793 33.956 45.7975C33.956 46.8731 32.3736 47.0703 31.4425 47.0703C30.2293 47.0703 29.4335 46.6438 28.5208 46.0796L28.0071 47.2676C28.5024 47.7629 29.6491 48.2514 30.8119 48.2514L30.8096 48.2491Z" fill="white"/>
<path d="M36.0637 49.7835H37.3044V41.2339H36.0637V49.7835Z" fill="white"/>
<path d="M42.9002 50.9503C44.6867 50.9503 45.5261 49.916 45.5261 49.916L44.8426 48.8221C44.8426 48.8221 44.4229 49.6844 42.9781 49.6844C41.0288 49.6844 39.9784 47.7786 39.9784 45.6068C39.9784 43.9739 40.6527 42.8112 41.8246 42.8112C42.7901 42.8112 43.7648 43.3409 44.4413 44.1367L45.2784 43.1368C44.9619 42.6575 44.0812 42.231 43.2006 42.231C40.7719 42.231 39.3019 44.0427 39.3019 46.4805C39.3019 48.9184 40.5242 50.9503 42.9002 50.9503Z" fill="white"/>
</g>
<defs>
<clipPath id="clip0_38_605">
<rect width="53.5935" height="44.9659" fill="white" transform="translate(1.40649 5.98486)"/>
</clipPath>
</defs>
</svg>
