<svg width="24" height="24" viewBox="0 0 24 24" fill="none" xmlns="http://www.w3.org/2000/svg">
<g id="Frame">
<g id="Group">
<g id="Group_2">
<path id="Vector" fill-rule="evenodd" clip-rule="evenodd" d="M14.75 2.99995C14.75 2.8642 14.7131 2.73101 14.6434 2.61456C14.5736 2.49812 14.4736 2.40279 14.3539 2.33874C14.2342 2.27469 14.0994 2.24432 13.9638 2.25087C13.8282 2.25743 13.6969 2.30065 13.584 2.37595L8.474 5.78195C8.274 5.91595 8.094 6.07395 7.939 6.24995H4C3.27065 6.24995 2.57118 6.53968 2.05546 7.0554C1.53973 7.57113 1.25 8.2706 1.25 8.99995V14.9999C1.25 15.7293 1.53973 16.4288 2.05546 16.9445C2.57118 17.4602 3.27065 17.7499 4 17.7499H7.939C8.094 17.9259 8.274 18.0839 8.475 18.2179L13.584 21.6239C13.6969 21.6992 13.8282 21.7425 13.9638 21.749C14.0994 21.7556 14.2342 21.7252 14.3539 21.6612C14.4736 21.5971 14.5736 21.5018 14.6434 21.3853C14.7131 21.2689 14.75 21.1357 14.75 20.9999V2.99995ZM8.75 15.9299C8.75 16.3479 8.959 16.7379 9.307 16.9699L13.25 19.5989V4.39995L9.307 7.02995C9.13572 7.14405 8.99525 7.29867 8.89809 7.4801C8.80092 7.66153 8.75005 7.86414 8.75 8.06995V15.9299Z" fill="white"/>
<path id="Vector_2" d="M17.348 9.34804C17.4177 9.27834 17.5004 9.22305 17.5914 9.18533C17.6824 9.14761 17.78 9.1282 17.8785 9.1282C17.977 9.1282 18.0746 9.14761 18.1656 9.18533C18.2567 9.22305 18.3394 9.27834 18.409 9.34804L20 10.94L21.591 9.35004C21.6597 9.27635 21.7425 9.21725 21.8345 9.17626C21.9265 9.13526 22.0258 9.11322 22.1265 9.11144C22.2272 9.10967 22.3272 9.12819 22.4206 9.16591C22.514 9.20363 22.5988 9.25978 22.67 9.331C22.7413 9.40222 22.7974 9.48705 22.8351 9.58044C22.8728 9.67383 22.8914 9.77386 22.8896 9.87456C22.8878 9.97526 22.8658 10.0746 22.8248 10.1666C22.7838 10.2586 22.7247 10.3414 22.651 10.41L21.062 12L22.652 13.591C22.7257 13.6597 22.7848 13.7425 22.8258 13.8345C22.8668 13.9265 22.8888 14.0258 22.8906 14.1265C22.8924 14.2272 22.8738 14.3272 22.8361 14.4206C22.7984 14.514 22.7423 14.5989 22.671 14.6701C22.5998 14.7413 22.515 14.7974 22.4216 14.8352C22.3282 14.8729 22.2282 14.8914 22.1275 14.8896C22.0268 14.8879 21.9275 14.8658 21.8355 14.8248C21.7435 14.7838 21.6607 14.7247 21.592 14.651L20 13.062L18.409 14.652C18.2668 14.7845 18.0788 14.8566 17.8845 14.8532C17.6902 14.8498 17.5048 14.7711 17.3674 14.6337C17.23 14.4962 17.1513 14.3109 17.1478 14.1166C17.1444 13.9223 17.2165 13.7342 17.349 13.592L18.938 12L17.348 10.409C17.2076 10.2684 17.1287 10.0778 17.1287 9.87904C17.1287 9.68029 17.2076 9.48966 17.348 9.34904V9.34804Z" fill="white"/>
</g>
</g>
</g>
</svg>
