<svg width="24" height="24" viewBox="0 0 24 24" fill="none" xmlns="http://www.w3.org/2000/svg">
<g id="Frame">
<g id="Group">
<g id="Group_2">
<path id="Vector" fill-rule="evenodd" clip-rule="evenodd" d="M18.5 2.99995C18.5 2.8642 18.4631 2.73101 18.3934 2.61456C18.3236 2.49812 18.2236 2.40279 18.1039 2.33874C17.9842 2.27469 17.8494 2.24432 17.7138 2.25087C17.5782 2.25743 17.4469 2.30065 17.334 2.37595L12.224 5.78195C12.024 5.91595 11.844 6.07395 11.689 6.24995H7.75C7.02065 6.24995 6.32118 6.53968 5.80546 7.0554C5.28973 7.57113 5 8.2706 5 8.99995V14.9999C5 15.7293 5.28973 16.4288 5.80546 16.9445C6.32118 17.4602 7.02065 17.7499 7.75 17.7499H11.689C11.844 17.9259 12.024 18.0839 12.225 18.2179L17.334 21.6239C17.4469 21.6992 17.5782 21.7425 17.7138 21.749C17.8494 21.7556 17.9842 21.7252 18.1039 21.6612C18.2236 21.5971 18.3236 21.5018 18.3934 21.3853C18.4631 21.2689 18.5 21.1357 18.5 20.9999V2.99995ZM12.5 15.9299C12.5 16.3479 12.709 16.7379 13.057 16.9699L17 19.5989V4.39995L13.057 7.02995C12.8857 7.14405 12.7453 7.29867 12.6481 7.4801C12.5509 7.66153 12.5001 7.86414 12.5 8.06995V15.9299Z" fill="white"/>
</g>
</g>
</g>
</svg>
