<svg width="16" height="16" viewBox="0 0 16 16" fill="none" xmlns="http://www.w3.org/2000/svg">
<g id="Frame">
<g id="Group">
<path id="Vector" d="M7.83329 12.0001C7.83329 12.0929 7.85915 12.184 7.90797 12.2629C7.95678 12.3419 8.02663 12.4058 8.10969 12.4473C8.19274 12.4888 8.28572 12.5064 8.3782 12.4981C8.47068 12.4897 8.55901 12.4558 8.63329 12.4001L13.1666 9.00008L13.1666 12.0001C13.1666 12.1327 13.2193 12.2599 13.3131 12.3536C13.4068 12.4474 13.534 12.5001 13.6666 12.5001C13.7992 12.5001 13.9264 12.4474 14.0202 12.3536C14.1139 12.2599 14.1666 12.1327 14.1666 12.0001L14.1666 4.00008C14.1666 3.86747 14.1139 3.74029 14.0202 3.64652C13.9264 3.55275 13.7992 3.50008 13.6666 3.50008C13.534 3.50008 13.4068 3.55275 13.3131 3.64652C13.2193 3.74029 13.1666 3.86747 13.1666 4.00008L13.1666 7.00008L8.63329 3.60007C8.55901 3.54436 8.47068 3.51043 8.3782 3.5021C8.28572 3.49376 8.19274 3.51133 8.10969 3.55286C8.02663 3.59439 7.95679 3.65822 7.90797 3.73721C7.85915 3.8162 7.83329 3.90722 7.83329 4.00007L7.83329 7.27007L2.62196 3.59141C2.54709 3.53847 2.45909 3.50714 2.36761 3.50084C2.27613 3.49455 2.18468 3.51353 2.10326 3.55572C2.02184 3.59791 1.95359 3.66168 1.90598 3.74005C1.85836 3.81842 1.83322 3.90837 1.83329 4.00007L1.83329 12.0001C1.83322 12.0918 1.85836 12.1817 1.90597 12.2601C1.95359 12.3385 2.02184 12.4022 2.10326 12.4444C2.18467 12.4866 2.27613 12.5056 2.36761 12.4993C2.45909 12.493 2.54709 12.4617 2.62196 12.4087L7.83329 8.72941L7.83329 12.0001Z" fill="white"/>
</g>
</g>
</svg>
