<svg width="24" height="24" viewBox="0 0 24 24" fill="none" xmlns="http://www.w3.org/2000/svg">
<g id="Frame">
<g id="Group">
<g id="Group_2">
<path id="Vector" d="M2.25 4C2.25 3.27065 2.53973 2.57118 3.05546 2.05546C3.57118 1.53973 4.27065 1.25 5 1.25H8C8.72935 1.25 9.42882 1.53973 9.94454 2.05546C10.4603 2.57118 10.75 3.27065 10.75 4V20C10.75 20.7293 10.4603 21.4288 9.94454 21.9445C9.42882 22.4603 8.72935 22.75 8 22.75H5C4.27065 22.75 3.57118 22.4603 3.05546 21.9445C2.53973 21.4288 2.25 20.7293 2.25 20V4ZM13.25 4C13.25 3.27065 13.5397 2.57118 14.0555 2.05546C14.5712 1.53973 15.2707 1.25 16 1.25H19C19.7293 1.25 20.4288 1.53973 20.9445 2.05546C21.4603 2.57118 21.75 3.27065 21.75 4V20C21.75 20.7293 21.4603 21.4288 20.9445 21.9445C20.4288 22.4603 19.7293 22.75 19 22.75H16C15.2707 22.75 14.5712 22.4603 14.0555 21.9445C13.5397 21.4288 13.25 20.7293 13.25 20V4Z" fill="white"/>
</g>
</g>
</g>
</svg>
