<svg width="24" height="24" viewBox="0 0 24 24" fill="none" xmlns="http://www.w3.org/2000/svg">
<g id="Frame 14">
<path id="Vector" d="M5.686 1.63975C5.57389 1.55965 5.44187 1.51198 5.30445 1.50198C5.16702 1.49198 5.0295 1.52003 4.90696 1.58305C4.78443 1.64607 4.68163 1.74163 4.60984 1.85924C4.53805 1.97685 4.50005 2.11196 4.5 2.24975V21.7498C4.50013 21.886 4.53734 22.0195 4.60764 22.1362C4.67795 22.2528 4.77869 22.3482 4.89906 22.4119C5.01943 22.4756 5.15488 22.5054 5.29088 22.4979C5.42687 22.4905 5.55828 22.4462 5.671 22.3698L19.671 12.8698C19.7709 12.8018 19.8529 12.7108 19.91 12.6044C19.9672 12.498 19.9978 12.3794 19.9993 12.2587C20.0007 12.1379 19.973 12.0186 19.9185 11.9108C19.8639 11.8031 19.7842 11.7101 19.686 11.6398L5.686 1.63975Z" fill="white"/>
</g>
</svg>
