<svg width="16" height="16" viewBox="0 0 16 16" fill="none" xmlns="http://www.w3.org/2000/svg">
<g id="Frame">
<g id="Group">
<path id="Vector" d="M8.16671 3.99992C8.16671 3.90707 8.14085 3.81605 8.09203 3.73706C8.04322 3.65807 7.97337 3.59424 7.89031 3.55271C7.80726 3.51118 7.71428 3.49361 7.6218 3.50194C7.52932 3.51028 7.44099 3.54421 7.36671 3.59992L2.83337 6.99992V3.99992C2.83337 3.86732 2.7807 3.74014 2.68693 3.64637C2.59316 3.5526 2.46598 3.49992 2.33337 3.49992C2.20077 3.49992 2.07359 3.5526 1.97982 3.64637C1.88605 3.74014 1.83337 3.86732 1.83337 3.99992V11.9999C1.83337 12.1325 1.88605 12.2597 1.97982 12.3535C2.07359 12.4472 2.20077 12.4999 2.33337 12.4999C2.46598 12.4999 2.59316 12.4472 2.68693 12.3535C2.7807 12.2597 2.83337 12.1325 2.83337 11.9999V8.99992L7.36671 12.3999C7.44099 12.4556 7.52932 12.4896 7.6218 12.4979C7.71428 12.5062 7.80726 12.4887 7.89031 12.4471C7.97337 12.4056 8.04322 12.3418 8.09203 12.2628C8.14085 12.1838 8.16671 12.0928 8.16671 11.9999V8.72993L13.378 12.4086C13.4529 12.4615 13.5409 12.4929 13.6324 12.4992C13.7239 12.5055 13.8153 12.4865 13.8967 12.4443C13.9782 12.4021 14.0464 12.3383 14.094 12.2599C14.1416 12.1816 14.1668 12.0916 14.1667 11.9999V3.99992C14.1668 3.90822 14.1416 3.81827 14.094 3.7399C14.0464 3.66153 13.9782 3.59776 13.8967 3.55557C13.8153 3.51338 13.7239 3.4944 13.6324 3.50069C13.5409 3.50698 13.4529 3.53832 13.378 3.59126L8.16671 7.27059V3.99992Z" fill="white"/>
</g>
</g>
</svg>
