<svg width="48" height="48" viewBox="0 0 92 92" fill="none" xmlns="http://www.w3.org/2000/svg">
<path d="M24.0654 42.6644C24.0654 42.6644 46.1792 33.2564 53.8486 29.9437C56.7887 28.6187 66.759 24.3783 66.759 24.3783C66.759 24.3783 71.3608 22.5233 70.9773 27.0285C70.8494 28.8837 69.8268 35.3764 68.8043 42.3994C67.2703 52.3375 65.6086 63.203 65.6086 63.203C65.6086 63.203 65.353 66.2508 63.18 66.7808C61.007 67.3108 57.4277 64.9258 56.7887 64.3956C56.2773 63.9982 47.2018 58.0353 43.8783 55.1201C42.9835 54.3251 41.961 52.7351 44.0061 50.8799C48.6078 46.5072 54.1043 41.0744 57.4277 37.6292C58.9617 36.039 60.4955 32.3289 54.1043 36.834C45.0288 43.327 36.081 49.4223 36.081 49.4223C36.081 49.4223 34.0357 50.7473 30.201 49.5547C26.3661 48.3623 21.8922 46.7722 21.8922 46.7722C21.8922 46.7722 18.8246 44.7846 24.0654 42.6644Z" fill="#34AADF"/>
</svg>
