<svg width="48" height="48" viewBox="0 0 48 48" fill="none" xmlns="http://www.w3.org/2000/svg">
<path d="M12.5511 22.7927C12.5511 22.7927 24.1439 17.91 28.1645 16.1907C29.7058 15.503 34.9326 13.3023 34.9326 13.3023C34.9326 13.3023 37.3451 12.3396 37.144 14.6777C37.0769 15.6406 36.5409 19.0103 36.0048 22.6552C35.2007 27.8131 34.3295 33.4523 34.3295 33.4523C34.3295 33.4523 34.1955 35.0341 33.0563 35.3091C31.9172 35.5842 30.0408 34.3464 29.7058 34.0712C29.4377 33.865 24.68 30.7702 22.9377 29.2572C22.4686 28.8446 21.9326 28.0194 23.0047 27.0566C25.4171 24.7871 28.2985 21.9675 30.0408 20.1795C30.845 19.3542 31.6491 17.4286 28.2985 19.7668C23.5408 23.1366 18.8501 26.3001 18.8501 26.3001C18.8501 26.3001 17.7779 26.9878 15.7676 26.3688C13.7572 25.75 11.4118 24.9247 11.4118 24.9247C11.4118 24.9247 9.80368 23.8931 12.5511 22.7927Z" fill="#010101"/>
</svg>
