<svg width="48" height="48" viewBox="0 0 48 48" fill="none" xmlns="http://www.w3.org/2000/svg">
<path d="M33.9567 15.38C33.7525 15.2745 33.5538 15.1588 33.3613 15.0335C32.8013 14.6633 32.288 14.2271 31.8322 13.7344C30.6918 12.4296 30.2659 11.1059 30.1091 10.1791H30.1154C29.9843 9.40983 30.0385 8.91211 30.0467 8.91211H24.8527V28.9962C24.8527 29.2658 24.8527 29.5323 24.8414 29.7957C24.8414 29.8285 24.8382 29.8587 24.8364 29.894C24.8364 29.9085 24.8364 29.9236 24.8332 29.9387C24.8332 29.9425 24.8332 29.9463 24.8332 29.95C24.7785 30.6707 24.5475 31.3668 24.1605 31.9772C23.7736 32.5875 23.2426 33.0935 22.6142 33.4505C21.9594 33.8231 21.2187 34.0185 20.4652 34.0175C18.0453 34.0175 16.084 32.0443 16.084 29.6073C16.084 27.1704 18.0453 25.1971 20.4652 25.1971C20.9233 25.1967 21.3786 25.2688 21.8141 25.4107L21.8204 20.1222C20.4982 19.9514 19.155 20.0565 17.8754 20.4308C16.5958 20.8052 15.4077 21.4406 14.3861 22.2971C13.4908 23.0749 12.7382 24.003 12.1621 25.0396C11.9428 25.4176 11.1156 26.9366 11.0154 29.4019C10.9524 30.8012 11.3726 32.2509 11.573 32.8501V32.8627C11.699 33.2155 12.1873 34.4195 12.983 35.4345C13.6246 36.2486 14.3827 36.9638 15.2328 37.557V37.5444L15.2454 37.557C17.7599 39.2657 20.5477 39.1535 20.5477 39.1535C21.0303 39.134 22.647 39.1535 24.4829 38.2834C26.5192 37.3189 27.6784 35.8818 27.6784 35.8818C28.419 35.0231 29.0079 34.0445 29.4198 32.9881C29.8898 31.7526 30.0467 30.2707 30.0467 29.6785V19.0234C30.1097 19.0613 30.9489 19.6163 30.9489 19.6163C30.9489 19.6163 32.1579 20.3912 34.0442 20.8959C35.3975 21.255 37.2208 21.3306 37.2208 21.3306V16.1745C36.582 16.2438 35.2848 16.0422 33.9567 15.38Z" fill="#010101"/>
</svg>
