<svg width="48" height="48" viewBox="0 0 92 92" fill="none" xmlns="http://www.w3.org/2000/svg">
<path fill-rule="evenodd" clip-rule="evenodd" d="M58.0476 38.4181C61.8299 41.1069 66.3595 42.5435 71.0001 42.5261V33.329C70.0878 33.3316 69.1779 33.2339 68.287 33.0378V40.3648C63.6359 40.373 59.0998 38.9199 55.3192 36.2108V55.126C55.3077 58.2298 54.4566 61.2726 52.8559 63.9319C51.2552 66.5912 48.9648 68.7677 46.2274 70.2307C43.4899 71.6937 40.4076 72.3886 37.3073 72.2418C34.2069 72.0949 31.2041 71.1118 28.6172 69.3967C31.01 71.8177 34.0674 73.4742 37.4023 74.1565C40.7372 74.8387 44.1996 74.516 47.3509 73.2292C50.5023 71.9424 53.2009 69.7494 55.1051 66.9278C57.0093 64.1063 58.0333 60.7832 58.0476 57.3792V38.4181ZM61.4045 29.0371C59.4811 26.9523 58.3009 24.2901 58.0476 21.4649V20.2693H55.4725C55.7908 22.0651 56.4835 23.7739 57.5055 25.2844C58.5275 26.795 59.856 28.0736 61.4045 29.0371ZM34.5799 62.1157C33.6874 60.9485 33.1404 59.5543 33.0012 58.0916C32.8621 56.6288 33.1364 55.1564 33.7928 53.8419C34.4493 52.5274 35.4616 51.4236 36.7145 50.6561C37.9674 49.8885 39.4106 49.4881 40.8799 49.5005C41.6911 49.5002 42.4975 49.6243 43.2711 49.8683V40.3648C42.3668 40.245 41.4547 40.1938 40.5426 40.2115V47.5997C38.659 47.0043 36.6202 47.1397 34.8318 47.979C33.0434 48.8183 31.6365 50.3 30.8908 52.1294C30.1451 53.9588 30.1154 56.0019 30.8074 57.8523C31.4995 59.7026 32.8627 61.2247 34.6259 62.1157H34.5799Z" fill="#EE1D52"/>
<path fill-rule="evenodd" clip-rule="evenodd" d="M55.3179 36.1495C59.0984 38.8586 63.6346 40.3117 68.2856 40.3034V32.9765C65.6357 32.4162 63.2284 31.0383 61.4032 29.0371C59.8547 28.0736 58.5262 26.795 57.5042 25.2844C56.4822 23.7739 55.7895 22.0651 55.4711 20.2693H48.696V57.3792C48.6897 59.0218 48.1692 60.6212 47.2074 61.9529C46.2457 63.2845 44.8911 64.2816 43.3338 64.8041C41.7765 65.3266 40.0947 65.3483 38.5244 64.8661C36.9542 64.3839 35.5743 63.4221 34.5786 62.1157C33.0006 61.3195 31.7368 60.0148 30.9913 58.4123C30.2457 56.8097 30.0618 55.0027 30.4692 53.2828C30.8765 51.5629 31.8515 50.0304 33.2367 48.9326C34.6219 47.8348 36.3366 47.2356 38.1041 47.2319C38.9151 47.2344 39.7211 47.3584 40.4953 47.5997V40.2115C37.1501 40.2918 33.901 41.3471 31.1471 43.2479C28.3931 45.1487 26.2541 47.8122 24.9925 50.9115C23.731 54.0109 23.4018 57.4111 24.0455 60.6948C24.6892 63.9786 26.2776 67.0029 28.6159 69.3967C31.2033 71.1241 34.2109 72.1174 37.3182 72.2707C40.4255 72.4239 43.5162 71.7315 46.2611 70.267C49.006 68.8025 51.3022 66.621 52.9052 63.9546C54.5082 61.2883 55.3579 58.2371 55.3638 55.126L55.3179 36.1495Z" fill="black"/>
<path fill-rule="evenodd" clip-rule="evenodd" d="M68.2864 32.9758V30.9984C65.8528 31.0088 63.4663 30.3284 61.404 29.0364C63.2246 31.0434 65.6338 32.4224 68.2864 32.9758ZM55.4719 20.2686C55.4719 19.916 55.3646 19.5482 55.3186 19.1956V18H45.9683V55.1253C45.9602 57.2041 45.1277 59.1947 43.6534 60.6603C42.1792 62.126 40.1837 62.9468 38.1049 62.9427C36.8809 62.9489 35.6728 62.6652 34.5794 62.115C35.5751 63.4214 36.9549 64.3832 38.5252 64.8654C40.0955 65.3476 41.7773 65.3259 43.3346 64.8034C44.8919 64.2809 46.2465 63.2839 47.2082 61.9522C48.1699 60.6205 48.6905 59.0211 48.6968 57.3785V20.2686H55.4719ZM40.4961 40.1955V38.0955C36.6485 37.5728 32.7373 38.3687 29.4 40.3534C26.0626 42.3382 23.4959 45.3948 22.1181 49.025C20.7403 52.6553 20.6327 56.6452 21.8128 60.3444C22.9929 64.0437 25.3911 67.2342 28.6166 69.396C26.2961 66.9967 24.7245 63.9736 24.094 60.6958C23.4635 57.418 23.8013 54.0275 25.0661 50.9386C26.331 47.8497 28.4681 45.196 31.2164 43.3018C33.9647 41.4075 37.2053 40.3548 40.5421 40.2721L40.4961 40.1955Z" fill="#69C9D0"/>
</svg>
